<mxfile host="app.diagrams.net" modified="2024-01-22T16:43:02.001Z" agent="Mozilla/5.0 (X11; Ubuntu; Linux x86_64; rv:109.0) Gecko/20100101 Firefox/118.0" etag="mlu7yMqXkpTp83mzCIK6" version="22.1.21" type="github">
  <diagram name="Page-1" id="cUYFqGyWfzDYqW2QdEiF">
    <mxGraphModel dx="989" dy="493" grid="1" gridSize="10" guides="1" tooltips="1" connect="1" arrows="1" fold="1" page="1" pageScale="1" pageWidth="850" pageHeight="1100" math="0" shadow="0">
      <root>
        <mxCell id="0" />
        <mxCell id="1" parent="0" />
        <mxCell id="REy7O8cnIQlqTStzF-FT-24" style="edgeStyle=orthogonalEdgeStyle;rounded=0;orthogonalLoop=1;jettySize=auto;html=1;entryX=0.5;entryY=0;entryDx=0;entryDy=0;fillColor=#fff2cc;strokeColor=#d6b656;" edge="1" parent="1" source="REy7O8cnIQlqTStzF-FT-2" target="REy7O8cnIQlqTStzF-FT-3">
          <mxGeometry relative="1" as="geometry" />
        </mxCell>
        <mxCell id="REy7O8cnIQlqTStzF-FT-2" value="&lt;pre&gt;&lt;code class=&quot;!whitespace-pre hljs language-plaintext&quot;&gt; Test Scenarios &lt;/code&gt;&lt;/pre&gt;" style="rounded=0;whiteSpace=wrap;html=1;dashed=1;fillColor=#fff2cc;strokeColor=#d6b656;" vertex="1" parent="1">
          <mxGeometry x="100" y="40" width="150" height="40" as="geometry" />
        </mxCell>
        <mxCell id="REy7O8cnIQlqTStzF-FT-25" style="edgeStyle=orthogonalEdgeStyle;rounded=0;orthogonalLoop=1;jettySize=auto;html=1;entryX=0.5;entryY=0;entryDx=0;entryDy=0;fillColor=#fff2cc;strokeColor=#d6b656;" edge="1" parent="1" source="REy7O8cnIQlqTStzF-FT-3" target="REy7O8cnIQlqTStzF-FT-4">
          <mxGeometry relative="1" as="geometry" />
        </mxCell>
        <mxCell id="REy7O8cnIQlqTStzF-FT-3" value="&lt;pre&gt;&lt;code class=&quot;!whitespace-pre hljs language-plaintext&quot;&gt; Login Tests  &lt;/code&gt;&lt;/pre&gt;" style="rounded=0;whiteSpace=wrap;html=1;dashed=1;fillColor=#fff2cc;strokeColor=#d6b656;" vertex="1" parent="1">
          <mxGeometry x="115" y="150" width="120" height="30" as="geometry" />
        </mxCell>
        <mxCell id="REy7O8cnIQlqTStzF-FT-26" style="edgeStyle=orthogonalEdgeStyle;rounded=0;orthogonalLoop=1;jettySize=auto;html=1;entryX=0.5;entryY=0;entryDx=0;entryDy=0;fillColor=#fff2cc;strokeColor=#d6b656;" edge="1" parent="1" source="REy7O8cnIQlqTStzF-FT-4" target="REy7O8cnIQlqTStzF-FT-7">
          <mxGeometry relative="1" as="geometry" />
        </mxCell>
        <mxCell id="REy7O8cnIQlqTStzF-FT-4" value="&lt;pre&gt;&lt;code class=&quot;!whitespace-pre hljs language-plaintext&quot;&gt; Valid Credentials &lt;/code&gt;&lt;/pre&gt;" style="rounded=0;whiteSpace=wrap;html=1;dashed=1;fillColor=#fff2cc;strokeColor=#d6b656;" vertex="1" parent="1">
          <mxGeometry x="100" y="270" width="150" height="30" as="geometry" />
        </mxCell>
        <mxCell id="REy7O8cnIQlqTStzF-FT-5" value="&lt;pre&gt;&lt;code class=&quot;!whitespace-pre hljs language-plaintext&quot;&gt; Dashboard Tests &lt;/code&gt;&lt;/pre&gt;" style="rounded=0;whiteSpace=wrap;html=1;dashed=1;fillColor=#fff2cc;strokeColor=#d6b656;" vertex="1" parent="1">
          <mxGeometry x="400" y="145" width="155" height="35" as="geometry" />
        </mxCell>
        <mxCell id="REy7O8cnIQlqTStzF-FT-6" value="&lt;pre&gt;&lt;code class=&quot;!whitespace-pre hljs language-plaintext&quot;&gt; Invalid Password &lt;/code&gt;&lt;/pre&gt;" style="rounded=0;whiteSpace=wrap;html=1;dashed=1;fillColor=#fff2cc;strokeColor=#d6b656;" vertex="1" parent="1">
          <mxGeometry x="100" y="480" width="150" height="30" as="geometry" />
        </mxCell>
        <mxCell id="REy7O8cnIQlqTStzF-FT-27" style="edgeStyle=orthogonalEdgeStyle;rounded=0;orthogonalLoop=1;jettySize=auto;html=1;entryX=0.5;entryY=0;entryDx=0;entryDy=0;fillColor=#fff2cc;strokeColor=#d6b656;" edge="1" parent="1" source="REy7O8cnIQlqTStzF-FT-7" target="REy7O8cnIQlqTStzF-FT-6">
          <mxGeometry relative="1" as="geometry" />
        </mxCell>
        <mxCell id="REy7O8cnIQlqTStzF-FT-7" value="&lt;pre&gt;&lt;code class=&quot;!whitespace-pre hljs language-plaintext&quot;&gt; Invalid Username &lt;/code&gt;&lt;/pre&gt;" style="rounded=0;whiteSpace=wrap;html=1;dashed=1;fillColor=#fff2cc;strokeColor=#d6b656;" vertex="1" parent="1">
          <mxGeometry x="100" y="370" width="150" height="40" as="geometry" />
        </mxCell>
        <mxCell id="REy7O8cnIQlqTStzF-FT-8" value="&lt;pre&gt;&lt;code class=&quot;!whitespace-pre hljs language-plaintext&quot;&gt;Scoreboard Tests &lt;/code&gt;&lt;/pre&gt;" style="rounded=0;whiteSpace=wrap;html=1;dashed=1;fillColor=#fff2cc;strokeColor=#d6b656;" vertex="1" parent="1">
          <mxGeometry x="405" y="570" width="145" height="40" as="geometry" />
        </mxCell>
        <mxCell id="REy7O8cnIQlqTStzF-FT-9" value="&lt;pre&gt;&lt;code class=&quot;!whitespace-pre hljs language-plaintext&quot;&gt; Display SpiderGraph&lt;/code&gt;&lt;/pre&gt;" style="rounded=0;whiteSpace=wrap;html=1;dashed=1;fillColor=#fff2cc;strokeColor=#d6b656;" vertex="1" parent="1">
          <mxGeometry x="400" y="270" width="160" height="30" as="geometry" />
        </mxCell>
        <mxCell id="REy7O8cnIQlqTStzF-FT-10" value="&lt;pre&gt;&lt;code class=&quot;!whitespace-pre hljs language-plaintext&quot;&gt;Display DPI&lt;/code&gt;&lt;/pre&gt;" style="rounded=0;whiteSpace=wrap;html=1;dashed=1;fillColor=#fff2cc;strokeColor=#d6b656;" vertex="1" parent="1">
          <mxGeometry x="410" y="370" width="130" height="30" as="geometry" />
        </mxCell>
        <mxCell id="REy7O8cnIQlqTStzF-FT-11" value="&lt;pre&gt;&lt;code class=&quot;!whitespace-pre hljs language-plaintext&quot;&gt;Display Batch Rank &lt;/code&gt;&lt;/pre&gt;" style="rounded=0;whiteSpace=wrap;html=1;dashed=1;fillColor=#fff2cc;strokeColor=#d6b656;" vertex="1" parent="1">
          <mxGeometry x="400" y="480" width="160" height="30" as="geometry" />
        </mxCell>
        <mxCell id="REy7O8cnIQlqTStzF-FT-12" value="&lt;pre&gt;&lt;code class=&quot;!whitespace-pre hljs language-plaintext&quot;&gt;Display Test Scores &lt;/code&gt;&lt;/pre&gt;" style="rounded=0;whiteSpace=wrap;html=1;dashed=1;fillColor=#fff2cc;strokeColor=#d6b656;" vertex="1" parent="1">
          <mxGeometry x="390" y="660" width="180" height="40" as="geometry" />
        </mxCell>
        <mxCell id="REy7O8cnIQlqTStzF-FT-38" style="edgeStyle=orthogonalEdgeStyle;rounded=0;orthogonalLoop=1;jettySize=auto;html=1;entryX=0.5;entryY=0;entryDx=0;entryDy=0;fillColor=#fff2cc;strokeColor=#d6b656;" edge="1" parent="1" source="REy7O8cnIQlqTStzF-FT-13" target="REy7O8cnIQlqTStzF-FT-14">
          <mxGeometry relative="1" as="geometry" />
        </mxCell>
        <mxCell id="REy7O8cnIQlqTStzF-FT-13" value="&lt;pre&gt;&lt;code class=&quot;!whitespace-pre hljs language-plaintext&quot;&gt;Display Assignment &lt;/code&gt;&lt;code class=&quot;!whitespace-pre hljs language-plaintext&quot;&gt; Scores   &lt;/code&gt;&lt;/pre&gt;" style="rounded=0;whiteSpace=wrap;html=1;dashed=1;fillColor=#fff2cc;strokeColor=#d6b656;" vertex="1" parent="1">
          <mxGeometry x="360" y="750" width="240" height="30" as="geometry" />
        </mxCell>
        <mxCell id="REy7O8cnIQlqTStzF-FT-41" style="edgeStyle=orthogonalEdgeStyle;rounded=0;orthogonalLoop=1;jettySize=auto;html=1;entryX=1;entryY=0.5;entryDx=0;entryDy=0;fillColor=#fff2cc;strokeColor=#d6b656;" edge="1" parent="1" source="REy7O8cnIQlqTStzF-FT-14" target="REy7O8cnIQlqTStzF-FT-18">
          <mxGeometry relative="1" as="geometry" />
        </mxCell>
        <mxCell id="REy7O8cnIQlqTStzF-FT-14" value="&lt;pre&gt;&lt;code class=&quot;!whitespace-pre hljs language-plaintext&quot;&gt;Change Password  &lt;/code&gt;&lt;/pre&gt;" style="rounded=0;whiteSpace=wrap;html=1;dashed=1;fillColor=#fff2cc;strokeColor=#d6b656;" vertex="1" parent="1">
          <mxGeometry x="410" y="830" width="140" height="30" as="geometry" />
        </mxCell>
        <mxCell id="REy7O8cnIQlqTStzF-FT-15" value="&lt;pre&gt;&lt;code class=&quot;!whitespace-pre hljs language-plaintext&quot;&gt;Display Assignment &lt;/code&gt;&lt;code class=&quot;!whitespace-pre hljs language-plaintext&quot;&gt;Scores&lt;/code&gt;&lt;/pre&gt;" style="rounded=0;whiteSpace=wrap;html=1;dashed=1;fillColor=#fff2cc;strokeColor=#d6b656;" vertex="1" parent="1">
          <mxGeometry x="385" y="900" width="215" height="40" as="geometry" />
        </mxCell>
        <mxCell id="REy7O8cnIQlqTStzF-FT-16" value="&lt;pre&gt;&lt;code class=&quot;!whitespace-pre hljs language-plaintext&quot;&gt; Invalid Old Pass  &lt;/code&gt;&lt;/pre&gt;" style="rounded=0;whiteSpace=wrap;html=1;dashed=1;fillColor=#fff2cc;strokeColor=#d6b656;" vertex="1" parent="1">
          <mxGeometry x="420" y="1000" width="150" height="30" as="geometry" />
        </mxCell>
        <mxCell id="REy7O8cnIQlqTStzF-FT-17" value="&lt;pre&gt;&lt;code class=&quot;!whitespace-pre hljs language-plaintext&quot;&gt;Edit Profile      &lt;/code&gt;&lt;/pre&gt;" style="rounded=0;whiteSpace=wrap;html=1;dashed=1;fillColor=#fff2cc;strokeColor=#d6b656;" vertex="1" parent="1">
          <mxGeometry x="75" y="905" width="170" height="30" as="geometry" />
        </mxCell>
        <mxCell id="REy7O8cnIQlqTStzF-FT-18" value="&lt;pre&gt;&lt;code class=&quot;!whitespace-pre hljs language-plaintext&quot;&gt; Profile Tests &lt;/code&gt;&lt;/pre&gt;" style="rounded=0;whiteSpace=wrap;html=1;dashed=1;fillColor=#fff2cc;strokeColor=#d6b656;" vertex="1" parent="1">
          <mxGeometry x="75" y="830" width="160" height="30" as="geometry" />
        </mxCell>
        <mxCell id="REy7O8cnIQlqTStzF-FT-19" value="&lt;pre&gt;&lt;code class=&quot;!whitespace-pre hljs language-plaintext&quot;&gt;Change Password &lt;/code&gt;&lt;/pre&gt;" style="rounded=0;whiteSpace=wrap;html=1;dashed=1;fillColor=#fff2cc;strokeColor=#d6b656;" vertex="1" parent="1">
          <mxGeometry x="85" y="1000" width="140" height="30" as="geometry" />
        </mxCell>
        <mxCell id="REy7O8cnIQlqTStzF-FT-22" style="edgeStyle=orthogonalEdgeStyle;rounded=0;orthogonalLoop=1;jettySize=auto;html=1;entryX=0.958;entryY=0.417;entryDx=0;entryDy=0;entryPerimeter=0;fillColor=#fff2cc;strokeColor=#d6b656;" edge="1" parent="1" source="REy7O8cnIQlqTStzF-FT-5" target="REy7O8cnIQlqTStzF-FT-3">
          <mxGeometry relative="1" as="geometry" />
        </mxCell>
        <mxCell id="REy7O8cnIQlqTStzF-FT-29" style="edgeStyle=orthogonalEdgeStyle;rounded=0;orthogonalLoop=1;jettySize=auto;html=1;entryX=0.478;entryY=-0.111;entryDx=0;entryDy=0;entryPerimeter=0;fillColor=#fff2cc;strokeColor=#d6b656;" edge="1" parent="1" source="REy7O8cnIQlqTStzF-FT-5" target="REy7O8cnIQlqTStzF-FT-9">
          <mxGeometry relative="1" as="geometry" />
        </mxCell>
        <mxCell id="REy7O8cnIQlqTStzF-FT-30" style="edgeStyle=orthogonalEdgeStyle;rounded=0;orthogonalLoop=1;jettySize=auto;html=1;entryX=0.538;entryY=0;entryDx=0;entryDy=0;entryPerimeter=0;fillColor=#fff2cc;strokeColor=#d6b656;" edge="1" parent="1" source="REy7O8cnIQlqTStzF-FT-9" target="REy7O8cnIQlqTStzF-FT-10">
          <mxGeometry relative="1" as="geometry" />
        </mxCell>
        <mxCell id="REy7O8cnIQlqTStzF-FT-31" style="edgeStyle=orthogonalEdgeStyle;rounded=0;orthogonalLoop=1;jettySize=auto;html=1;entryX=0.466;entryY=0;entryDx=0;entryDy=0;entryPerimeter=0;fillColor=#fff2cc;strokeColor=#d6b656;" edge="1" parent="1" source="REy7O8cnIQlqTStzF-FT-10" target="REy7O8cnIQlqTStzF-FT-11">
          <mxGeometry relative="1" as="geometry" />
        </mxCell>
        <mxCell id="REy7O8cnIQlqTStzF-FT-35" style="edgeStyle=orthogonalEdgeStyle;rounded=0;orthogonalLoop=1;jettySize=auto;html=1;entryX=0.486;entryY=0;entryDx=0;entryDy=0;entryPerimeter=0;fillColor=#fff2cc;strokeColor=#d6b656;" edge="1" parent="1" source="REy7O8cnIQlqTStzF-FT-8" target="REy7O8cnIQlqTStzF-FT-12">
          <mxGeometry relative="1" as="geometry" />
        </mxCell>
        <mxCell id="REy7O8cnIQlqTStzF-FT-36" style="edgeStyle=orthogonalEdgeStyle;rounded=0;orthogonalLoop=1;jettySize=auto;html=1;entryX=0.5;entryY=-0.036;entryDx=0;entryDy=0;entryPerimeter=0;fillColor=#fff2cc;strokeColor=#d6b656;" edge="1" parent="1" source="REy7O8cnIQlqTStzF-FT-12" target="REy7O8cnIQlqTStzF-FT-13">
          <mxGeometry relative="1" as="geometry" />
        </mxCell>
        <mxCell id="REy7O8cnIQlqTStzF-FT-37" style="edgeStyle=orthogonalEdgeStyle;rounded=0;orthogonalLoop=1;jettySize=auto;html=1;entryX=0.512;entryY=-0.079;entryDx=0;entryDy=0;entryPerimeter=0;fillColor=#fff2cc;strokeColor=#d6b656;" edge="1" parent="1" source="REy7O8cnIQlqTStzF-FT-11" target="REy7O8cnIQlqTStzF-FT-8">
          <mxGeometry relative="1" as="geometry" />
        </mxCell>
        <mxCell id="REy7O8cnIQlqTStzF-FT-40" style="edgeStyle=orthogonalEdgeStyle;rounded=0;orthogonalLoop=1;jettySize=auto;html=1;entryX=0.442;entryY=0.004;entryDx=0;entryDy=0;entryPerimeter=0;fillColor=#fff2cc;strokeColor=#d6b656;" edge="1" parent="1" source="REy7O8cnIQlqTStzF-FT-14" target="REy7O8cnIQlqTStzF-FT-15">
          <mxGeometry relative="1" as="geometry" />
        </mxCell>
        <mxCell id="REy7O8cnIQlqTStzF-FT-42" style="edgeStyle=orthogonalEdgeStyle;rounded=0;orthogonalLoop=1;jettySize=auto;html=1;entryX=0.467;entryY=-0.067;entryDx=0;entryDy=0;entryPerimeter=0;fillColor=#fff2cc;strokeColor=#d6b656;" edge="1" parent="1" source="REy7O8cnIQlqTStzF-FT-18" target="REy7O8cnIQlqTStzF-FT-17">
          <mxGeometry relative="1" as="geometry" />
        </mxCell>
        <mxCell id="REy7O8cnIQlqTStzF-FT-43" style="edgeStyle=orthogonalEdgeStyle;rounded=0;orthogonalLoop=1;jettySize=auto;html=1;entryX=0.538;entryY=-0.089;entryDx=0;entryDy=0;entryPerimeter=0;fillColor=#fff2cc;strokeColor=#d6b656;" edge="1" parent="1" source="REy7O8cnIQlqTStzF-FT-17" target="REy7O8cnIQlqTStzF-FT-19">
          <mxGeometry relative="1" as="geometry" />
        </mxCell>
      </root>
    </mxGraphModel>
  </diagram>
</mxfile>
